<svg width="20" height="20" viewBox="0 0 20 20" fill="none" xmlns="http://www.w3.org/2000/svg">
    <path d="M10 1.04166C8.44386 1.04333 6.91494 1.44996 5.56357 2.22156C4.2122 2.99316 3.0849 4.10318 2.2925 5.44247C1.50011 6.78176 1.06991 8.30421 1.04419 9.86014C1.01848 11.4161 1.39814 12.9519 2.14584 14.3167L1.04167 18.9583L5.68334 17.8542C6.88053 18.5109 8.212 18.8853 9.57602 18.9487C10.94 19.0121 12.3005 18.7628 13.5534 18.2199C14.8064 17.677 15.9186 16.8549 16.8052 15.8164C17.6918 14.7779 18.3292 13.5504 18.6688 12.2278C19.0084 10.9052 19.0411 9.5225 18.7645 8.18531C18.4879 6.84813 17.9093 5.59188 17.0729 4.51255C16.2364 3.43322 15.1643 2.55939 13.9385 1.95783C12.7126 1.35626 11.3655 1.04289 10 1.04166ZM5.52084 5.11249H7.96251C8.07301 5.11249 8.17899 5.15639 8.25713 5.23453C8.33527 5.31267 8.37917 5.41865 8.37917 5.52916C8.3655 6.08482 8.45887 6.63793 8.65417 7.15832C8.73828 7.33253 8.75677 7.53121 8.70626 7.71794C8.65575 7.90467 8.53963 8.06694 8.37917 8.17499L7.52501 9.00832C7.90374 9.74793 8.39895 10.4218 8.99167 11.0042C9.56931 11.6065 10.2405 12.1116 10.9792 12.5L11.8125 11.6458C12.2292 11.2292 12.4208 11.2292 12.8292 11.3708C13.3496 11.5661 13.9027 11.6595 14.4583 11.6458C14.5672 11.6509 14.6703 11.6964 14.7473 11.7735C14.8244 11.8506 14.8699 11.9536 14.875 12.0625V14.5042C14.8699 14.613 14.8244 14.7161 14.7473 14.7932C14.6703 14.8702 14.5672 14.9158 14.4583 14.9208C12.0073 14.814 9.68403 13.798 7.94167 12.0708C6.21183 10.3303 5.19527 8.0059 5.09167 5.55416C5.09266 5.43947 5.13782 5.32957 5.21774 5.24732C5.29767 5.16506 5.40623 5.11677 5.52084 5.11249Z" stroke="black" stroke-width="0.8" stroke-linecap="round" stroke-linejoin="round"/>
</svg>
